<svg xmlns="http://www.w3.org/2000/svg" width="180.2" height="177.4">
  <path d="M134.8 164.3H9.3l-9.3-14L88.4 0 156 114.6h-27L88.4 51.1l-.2-31.2v41.8l-57.6 81h104a24 24 0 0121.6-13.4 24 24 0 0124 24 24 24 0 01-24 24 24 24 0 01-21.4-13zm9.4-11a12 12 0 0012 12 12 12 0 0012-12 12 12 0 00-12-12 12 12 0 00-12 12z" fill="#3ab982"/>
  <path d="M17.3 139.7L88.1 19.8l45.3 74.6h-25L88.2 61.8V40.6v21.2l-45.8 77.9z" fill="#34495f"/>
  <g fill="#34495f" stroke="#34495f" stroke-width="5">
    <path d="M83.8 131.5v-4h0a6.5 6.5 0 01-1.5 2 9 9 0 01-2 1.3 10.3 10.3 0 01-2.3.9 10.4 10.4 0 01-2.5.3 11 11 0 01-4.5-.9 10.3 10.3 0 01-3.4-2.5 11.4 11.4 0 01-2.3-3.7 13.4 13.4 0 01-.8-4.7 12.9 12.9 0 01.8-4.6 11.2 11.2 0 012.2-3.7 10.5 10.5 0 013.5-2.5 11 11 0 014.5-.9 10.5 10.5 0 012.5.3 10.3 10.3 0 012.2.8 9.2 9.2 0 012 1.4 8.1 8.1 0 011.5 1.8h.1V109h3.4v22.5zM84 120a9.5 9.5 0 00-.6-3.4 8.4 8.4 0 00-1.7-2.7 7.7 7.7 0 00-2.6-1.9 8 8 0 00-3.3-.6 7.9 7.9 0 00-3.4.7 7.6 7.6 0 00-2.5 1.8 8.2 8.2 0 00-1.6 2.9 10.7 10.7 0 00-.5 3.4 10 10 0 00.5 3.4 9 9 0 001.7 2.8 8 8 0 002.6 2 7.7 7.7 0 003.4.8 7.5 7.5 0 003.4-.8 7.5 7.5 0 002.5-2 8.9 8.9 0 001.5-3 11.5 11.5 0 00.6-3.4zM111.6 131.5l-6.6-9.2h0l-6.5 9.2h-3.8l8.4-11.6-8-10.9h4l6 8.5h0l6-8.5h3.8l-8 10.8 8.6 11.7z"/>
  </g>
</svg>
